HIERARCHY
ROOT SpineBase
{
  OFFSET 0.000000 0.000000 0.000000
  CHANNELS 6 Xposition Yposition Zposition Zrotation Xrotation Yrotation
  JOINT SpineMid
  {
    OFFSET 0.000000 30.534485 0.000000
    CHANNELS 3 Zrotation Xrotation Yrotation
    JOINT SpineShoulder
    {
      OFFSET 0.500342 22.607201 -0.909415
      CHANNELS 3 Zrotation Xrotation Yrotation
      JOINT Neck
      {
        OFFSET 0.668428 7.453241 -0.725806
        CHANNELS 3 Zrotation Xrotation Yrotation
        JOINT Head
        {
          OFFSET 3.722786 10.080814 5.854143
          CHANNELS 3 Zrotation Xrotation Yrotation
          End Site
          {
            OFFSET 0 0 0
          }
        }
      }
      JOINT ShoulderLeft
      {
        OFFSET 1.204893 -5.030936 -15.554810
        CHANNELS 3 Zrotation Xrotation Yrotation
        JOINT ElbowLeft
        {
          OFFSET 5.723524 -24.822349 -5.881400
          CHANNELS 3 Zrotation Xrotation Yrotation
          JOINT WristLeft
          {
            OFFSET 15.779705 -8.805104 15.640520
            CHANNELS 3 Zrotation Xrotation Yrotation
            JOINT HandLeft
            {
              OFFSET 5.134588 0.955531 5.027189
              CHANNELS 3 Zrotation Xrotation Yrotation
              JOINT HandTipLeft
              {
                OFFSET 6.215360 -0.447987 3.044774
                CHANNELS 3 Zrotation Xrotation Yrotation
                End Site
                {
                  OFFSET 0 0 0
                }
              }
              JOINT ThumbLeft
              {
                OFFSET -0.579693 5.745795 -2.086615
                CHANNELS 3 Zrotation Xrotation Yrotation
                End Site
                {
                  OFFSET 0 0 0
                }
              }
            }
          }
        }
      }
      JOINT ShoulderRight
      {
        OFFSET 12.965016 2.021410 15.859190
        CHANNELS 3 Zrotation Xrotation Yrotation
        JOINT ElbowRight
        {
          OFFSET 2.299121 -26.391288 -0.695250
          CHANNELS 3 Zrotation Xrotation Yrotation
          JOINT WristRight
          {
            OFFSET 17.880810 -12.694119 -12.790775
            CHANNELS 3 Zrotation Xrotation Yrotation
            JOINT HandRight
            {
              OFFSET 2.422858 -0.038268 1.367194
              CHANNELS 3 Zrotation Xrotation Yrotation
              JOINT HandTipRight
              {
                OFFSET 5.014676 -2.765601 0.536813
                CHANNELS 3 Zrotation Xrotation Yrotation
                End Site
                {
                  OFFSET 0 0 0
                }
              }
              JOINT ThumbRight
              {
                OFFSET 4.486080 3.728618 -0.252010
                CHANNELS 3 Zrotation Xrotation Yrotation
                End Site
                {
                  OFFSET 0 0 0
                }
              }
            }
          }
        }
      }
    }
  }
  JOINT HipLeft
  {
    OFFSET -1.535162 0.600122 -9.273681
    CHANNELS 3 Zrotation Xrotation Yrotation
    JOINT KneeLeft
    {
      OFFSET -5.577831 -37.836901 -1.149182
      CHANNELS 3 Zrotation Xrotation Yrotation
      JOINT AnkleLeft
      {
        OFFSET -10.555709 -35.480988 -0.892828
        CHANNELS 3 Zrotation Xrotation Yrotation
        JOINT FootLeft
        {
          OFFSET 5.007207 -6.999115 -4.066511
          CHANNELS 3 Zrotation Xrotation Yrotation
          End Site
          {
            OFFSET 0 0 0
          }
        }
      }
    }
  }
  JOINT HipRight
  {
    OFFSET 2.819266 1.055476 1.573868
    CHANNELS 3 Zrotation Xrotation Yrotation
    JOINT KneeRight
    {
      OFFSET -8.886429 -36.957262 0.756577
      CHANNELS 3 Zrotation Xrotation Yrotation
      JOINT AnkleRight
      {
        OFFSET 9.479780 -28.898243 -6.616850
        CHANNELS 3 Zrotation Xrotation Yrotation
        JOINT FootRight
        {
          OFFSET 9.824201 -3.861646 -7.137191
          CHANNELS 3 Zrotation Xrotation Yrotation
          End Site
          {
            OFFSET 0 0 0
          }
        }
      }
    }
  }
}
MOTION
Frames: 11
Frame Time: 0.033333
-55.007617 81.965311 342.501767 -5.596678 2.958052 -59.920728 -0.473693 0.120284 59.778800 3.111810 0.720159 -0.210374 2.809067 -5.094431 1.017881 0.000000 0.000000 0.000000 -5.436677 9.168875 6.005381 -34.471482 28.132491 16.582265 -24.146815 27.340479 -2.226623 12.739152 -21.174387 -28.640911 0.000000 0.000000 0.000000 0.000000 0.000000 0.000000 3.567685 -77.151041 -6.051651 -173.867305 47.939727 -136.217958 37.750801 -38.841298 114.208441 35.719280 4.636536 -60.271395 0.000000 0.000000 0.000000 0.000000 0.000000 0.000000 3.376128 5.625851 59.613991 -2.357067 -4.051036 0.728203 -0.675963 -0.555159 -0.426950 0.000000 0.000000 0.000000 -1.609129 -6.403561 59.216756 11.951102 -1.015863 0.611430 -48.037148 -43.746693 46.545298 0.000000 0.000000 0.000000
-55.010790 81.588561 342.542509 -6.306915 3.135677 -57.536257 -0.452931 0.320721 57.407082 3.157091 0.797357 -0.248031 1.412238 -3.938872 1.512909 0.000000 0.000000 0.000000 -8.426090 9.043175 7.146866 -33.210876 29.523438 16.838029 -27.430880 28.717291 0.486512 16.474600 -21.948910 -31.156091 0.000000 0.000000 0.000000 0.000000 0.000000 0.000000 -4.841806 -65.252931 -10.318135 154.830267 42.274515 -109.968101 30.429310 -32.093798 112.162096 23.059817 6.197529 -59.448436 0.000000 0.000000 0.000000 0.000000 0.000000 0.000000 3.490402 6.120865 57.199963 -2.010964 -4.676993 0.806572 -0.788998 -0.356890 -0.279071 0.000000 0.000000 0.000000 -0.814784 -6.941097 57.047593 12.596013 -0.021936 0.273867 -46.815187 -42.415295 46.901809 0.000000 0.000000 0.000000
-55.295443 80.619604 342.777908 -7.230684 3.120817 -53.313867 -0.296673 0.582492 53.195937 3.239787 0.937488 -0.279557 -0.778686 -2.200053 2.318688 0.000000 0.000000 0.000000 -11.012691 8.769284 8.106940 -31.701350 30.540985 17.579870 -26.895788 30.510658 -0.650665 18.297568 -23.730122 -30.534022 0.000000 0.000000 0.000000 0.000000 0.000000 0.000000 0.269617 -55.983898 -5.810481 122.424121 31.833789 -93.505305 20.834111 -24.708997 101.584967 21.453883 10.561696 -49.486757 0.000000 0.000000 0.000000 0.000000 0.000000 0.000000 3.557990 7.307089 52.892188 -1.898665 -5.875905 0.964075 -1.011772 -0.046612 -0.023161 0.000000 0.000000 0.000000 0.524694 -7.844296 53.268310 13.212402 1.943988 -0.433168 -43.022987 -39.016104 50.837620 0.000000 0.000000 0.000000
-55.796506 79.497534 343.219835 -8.362352 2.908774 -51.952317 -0.206754 0.928957 51.842560 3.250257 1.085055 -0.322966 -2.889486 -0.743401 3.389078 0.000000 0.000000 0.000000 -12.936500 8.365327 8.903530 -30.245170 31.478818 17.795676 -27.674815 28.128250 1.078521 19.832554 -23.084532 -32.514714 0.000000 0.000000 0.000000 0.000000 0.000000 0.000000 9.366230 -47.300069 -0.712062 91.649396 26.413590 -80.354874 9.705096 -26.117280 82.389150 31.251983 10.226054 -32.312610 0.000000 0.000000 0.000000 0.000000 0.000000 0.000000 3.661527 9.076313 51.452511 -1.953708 -6.844621 1.091505 -2.231975 0.483577 1.013178 0.000000 0.000000 0.000000 2.175259 -8.288666 52.345599 13.602345 3.750807 -1.102241 -38.581998 -33.969193 55.038238 0.000000 0.000000 0.000000
-56.498608 78.324590 343.821557 -9.632282 2.502460 -53.201173 -0.229570 1.321123 53.088850 3.189479 1.153691 -0.371511 -6.088107 0.939313 5.169859 0.000000 0.000000 0.000000 -14.568197 7.669614 9.548359 -28.541163 32.337695 18.519805 -27.245547 25.757538 1.590762 21.694738 -22.077615 -35.149848 0.000000 0.000000 0.000000 0.000000 0.000000 0.000000 19.730467 -37.345988 3.152856 63.641607 21.112243 -66.387734 -5.278280 -25.892703 67.140848 40.540404 8.326262 -19.154360 0.000000 0.000000 0.000000 0.000000 0.000000 0.000000 3.589470 11.267974 52.642662 -2.084558 -7.526534 1.184341 -3.385206 0.574044 1.666236 0.000000 0.000000 0.000000 4.047833 -8.096659 53.973944 13.815265 5.321505 -1.692226 -34.374275 -27.937273 58.491807 0.000000 0.000000 0.000000
-57.238612 77.227043 344.592038 -10.949394 1.938967 -56.398877 -0.318401 1.656938 56.260916 3.080794 1.047191 -0.414526 -8.584942 2.468993 6.910422 0.000000 0.000000 0.000000 -15.835241 7.249531 10.178183 -26.527184 32.847447 19.286706 -27.161239 25.287125 1.608822 22.277243 -22.242020 -35.526024 0.000000 0.000000 0.000000 0.000000 0.000000 0.000000 30.140326 -27.065237 5.028060 37.925427 14.629377 -52.790372 -15.085915 -20.464918 60.787770 45.586662 5.767976 -11.334159 0.000000 0.000000 0.000000 0.000000 0.000000 0.000000 3.004865 13.528921 55.845302 -1.976142 -7.955108 1.264170 -4.855101 0.150889 2.046598 0.000000 0.000000 0.000000 6.389354 -6.748406 57.480469 13.238440 6.775869 -2.210245 -30.534225 -21.296040 61.964470 0.000000 0.000000 0.000000
-58.007140 76.399640 345.373346 -12.259226 1.377416 -59.972919 -0.421547 1.817371 59.782428 2.941424 0.852635 -0.461540 -10.254795 3.464863 8.584931 0.000000 0.000000 0.000000 -17.282273 6.689696 10.842936 -24.100553 33.436048 20.303304 -26.128763 23.571199 1.206962 22.206708 -22.467529 -35.484187 0.000000 0.000000 0.000000 0.000000 0.000000 0.000000 41.003401 -18.089158 5.354825 13.843368 8.425971 -40.742963 -18.477293 -13.121834 60.422339 44.829574 2.951262 -8.002299 0.000000 0.000000 0.000000 0.000000 0.000000 0.000000 2.395774 15.626720 59.462371 -1.781311 -7.979156 1.298919 -6.611779 -0.934066 2.049174 0.000000 0.000000 0.000000 7.460685 -4.919262 61.008101 13.001588 7.192497 -2.352224 -28.071003 -16.363288 63.070570 0.000000 0.000000 0.000000
-58.712947 75.939876 346.125617 -13.473579 0.830966 -63.363046 -0.594558 1.766965 63.097731 2.808760 0.617741 -0.515139 -10.755935 3.415250 10.015990 0.000000 0.000000 0.000000 -18.796526 6.030981 11.530226 -21.176774 33.893030 21.409959 -25.390662 22.915672 0.589061 19.950869 -22.520696 -33.683315 0.000000 0.000000 0.000000 0.000000 0.000000 0.000000 52.535441 -11.421120 4.740476 -11.767476 4.332872 -28.324811 -17.110475 -4.829024 65.138461 38.050777 -3.780779 -12.420507 0.000000 0.000000 0.000000 0.000000 0.000000 0.000000 1.895090 17.298312 62.905882 -1.381485 -7.543313 1.276018 -8.292285 -2.245356 1.769909 0.000000 0.000000 0.000000 7.488791 -2.718661 64.139626 12.720830 6.767547 -2.183835 -26.453649 -12.993943 63.231080 0.000000 0.000000 0.000000
-59.272500 75.752142 346.721338 -14.605263 0.424733 -65.470786 -0.732057 1.487092 65.117923 2.715470 0.344297 -0.578352 -8.630573 2.039198 10.447404 0.000000 0.000000 0.000000 -20.090907 5.341703 12.183096 -18.813216 34.539014 22.975634 -23.030815 22.108840 -1.506065 18.840887 -23.233103 -31.876278 0.000000 0.000000 0.000000 0.000000 0.000000 0.000000 59.353024 -7.098365 3.411378 -29.187588 -0.609943 -21.243826 -17.137582 -0.056292 58.967535 37.157777 -1.427059 -6.203743 0.000000 0.000000 0.000000 0.000000 0.000000 0.000000 2.052235 18.530232 64.987239 -0.876795 -6.679278 1.174132 -9.900727 -3.537263 1.467383 0.000000 0.000000 0.000000 6.605807 -0.518939 65.895658 12.438472 5.557283 -1.734793 -25.700885 -11.395463 63.307514 0.000000 0.000000 0.000000
-59.571784 75.989986 346.997465 -15.441503 0.285381 -66.768102 -0.739034 0.930771 66.325701 2.718519 0.068522 -0.636501 -5.007186 -0.485581 10.280680 0.000000 0.000000 0.000000 -21.752589 4.482568 12.807368 -16.056451 35.306278 23.752499 -22.214545 20.853039 -1.873751 18.342082 -23.418804 -31.242937 0.000000 0.000000 0.000000 0.000000 0.000000 0.000000 59.963809 -3.353161 1.741057 -38.153041 -6.336246 -18.316379 -15.731011 5.039566 56.537611 31.093232 -0.099213 -4.949414 0.000000 0.000000 0.000000 0.000000 0.000000 0.000000 2.879689 18.930486 66.179935 -0.115799 -5.326602 0.971841 -11.266157 -4.735350 1.093378 0.000000 0.000000 0.000000 4.928655 1.521838 66.839682 12.131449 3.509517 -0.993897 -26.074082 -12.192018 63.260071 0.000000 0.000000 0.000000
-59.628384 76.446371 347.244576 -16.100329 0.080438 -65.651830 -0.683067 0.477011 65.117878 2.820730 -0.171704 -0.672349 -4.890502 -1.427982 11.300265 0.000000 0.000000 0.000000 -23.777743 3.694983 13.435874 -13.431264 36.128673 24.437746 -20.280803 21.605011 -3.981472 19.294702 -25.142807 -29.674828 0.000000 0.000000 0.000000 0.000000 0.000000 0.000000 56.997256 -1.161365 0.654976 -41.998116 -10.490294 -17.214783 -12.646790 9.482156 60.397575 24.492412 -0.564063 -10.501883 0.000000 0.000000 0.000000 0.000000 0.000000 0.000000 3.437795 19.491554 64.951831 0.527895 -4.950524 0.905425 -12.151957 -5.663629 0.753777 0.000000 0.000000 0.000000 4.355556 1.898219 65.628516 12.596002 2.995697 -0.814309 -26.433759 -13.128548 62.104726 0.000000 0.000000 0.000000
